<svg width="22" height="20" viewBox="0 0 22 20" fill="none" xmlns="http://www.w3.org/2000/svg">
<path d="M19.8399 2.61012C19.3291 2.09912 18.7227 1.69376 18.0552 1.4172C17.3878 1.14064 16.6724 0.998291 15.9499 0.998291C15.2274 0.998291 14.512 1.14064 13.8445 1.4172C13.1771 1.69376 12.5706 2.09912 12.0599 2.61012L10.9999 3.67012L9.93987 2.61012C8.90818 1.57842 7.50891 0.998826 6.04987 0.998826C4.59084 0.998826 3.19157 1.57842 2.15987 2.61012C1.12818 3.64181 0.548584 5.04108 0.548584 6.50012C0.548584 7.95915 1.12818 9.35843 2.15987 10.3901L3.21987 11.4501L10.9999 19.2301L18.7799 11.4501L19.8399 10.3901C20.3509 9.87936 20.7562 9.27293 21.0328 8.60547C21.3094 7.93801 21.4517 7.2226 21.4517 6.50012C21.4517 5.77763 21.3094 5.06222 21.0328 4.39476C20.7562 3.7273 20.3509 3.12087 19.8399 2.61012V2.61012Z" stroke="#4F4F4F" stroke-linecap="round" stroke-linejoin="round"/>
</svg>
