<svg width="14" height="16" viewBox="0 0 14 16" fill="none" xmlns="http://www.w3.org/2000/svg">
<path d="M11.6667 7.33325H2.33333C1.59695 7.33325 1 7.93021 1 8.66659V13.3333C1 14.0696 1.59695 14.6666 2.33333 14.6666H11.6667C12.403 14.6666 13 14.0696 13 13.3333V8.66659C13 7.93021 12.403 7.33325 11.6667 7.33325Z" stroke="#828282" stroke-linecap="round" stroke-linejoin="round"/>
<path d="M3.66666 7.33325V4.66659C3.66666 3.78253 4.01785 2.93468 4.64297 2.30956C5.26809 1.68444 6.11593 1.33325 6.99999 1.33325C7.88404 1.33325 8.73189 1.68444 9.35701 2.30956C9.98213 2.93468 10.3333 3.78253 10.3333 4.66659V7.33325" stroke="#828282" stroke-linecap="round" stroke-linejoin="round"/>
</svg>
