<svg width="375" height="280" viewBox="0 0 375 280" fill="none" xmlns="http://www.w3.org/2000/svg">
<path d="M401 72.2248C401 -51.2557 318.402 -151 196.893 -151C75.3844 -151 -23.1179 -50.8993 -23.1179 72.5812C-23.1179 196.062 -167.953 280 -46.4444 280C124.263 124.84 401 195.705 401 72.2248Z" fill="#FFDD67"/>
<g clip-path="url(#clip0_0_1)">
<path d="M54.0325 102.449V150.428C54.0325 150.428 53.2122 164.253 58.9456 164.253C64.679 164.253 68.7714 156.934 69.5909 142.296C70.4104 127.659 80.2358 139.043 84.3298 143.922C88.4238 148.801 106.697 168.516 111.611 164.45C111.611 164.45 117.342 160.384 115.705 153.066C114.068 145.747 79.007 137.01 86.3774 122.372C93.7478 107.734 112.58 110.174 109.306 93.0968C109.306 93.0968 108.486 84.9648 97.8418 91.4702C87.1977 97.9756 83.1021 111.801 77.3703 115.866C71.6385 119.932 65.0879 119.119 65.0879 107.734C65.0879 96.3498 64.2677 91.4702 58.5366 91.4702C52.8056 91.4702 54.0333 102.448 54.0333 102.448" fill="white"/>
<path d="M83.3703 94.1768C83.3703 95.6243 82.9381 97.0393 82.1283 98.2429C81.3185 99.4465 80.1675 100.385 78.8208 100.939C77.4742 101.492 75.9924 101.637 74.5628 101.355C73.1332 101.073 71.8201 100.375 70.7894 99.3518C69.7588 98.3282 69.0569 97.0241 68.7726 95.6044C68.4883 94.1846 68.6343 92.713 69.1921 91.3757C69.75 90.0383 70.6946 88.8953 71.9066 88.0912C73.1186 87.287 74.5435 86.8578 76.0011 86.8579C77.9556 86.8579 79.8301 87.629 81.2122 89.0015C82.5943 90.3741 83.3707 92.2357 83.3707 94.1768" fill="white"/>
<path d="M46.5478 118.023C46.2852 118.025 46.0252 117.972 45.7844 117.868C45.5437 117.764 45.3275 117.611 45.1498 117.419C45.017 117.276 41.8772 113.85 40.121 108.031C38.509 102.69 37.7871 94.2211 43.508 84.1985C49.8933 73.0129 60.8324 67.3725 72.7691 69.1139C78.0929 69.8951 83.1012 72.104 87.2545 75.5025C91.5208 79.0411 94.3824 83.5522 95.5304 88.5486C95.5895 88.7908 95.5996 89.0422 95.5601 89.2883C95.5205 89.5344 95.4322 89.7703 95.3001 89.9822C95.168 90.194 94.9949 90.3778 94.7907 90.5227C94.5865 90.6675 94.3554 90.7707 94.1108 90.8261C93.8661 90.8816 93.6128 90.8882 93.3656 90.8456C93.1183 90.8031 92.8821 90.7121 92.6705 90.5781C92.4589 90.4441 92.2763 90.2697 92.1332 90.065C91.9901 89.8603 91.8893 89.6294 91.8368 89.3857C90.8747 85.1989 88.4506 81.397 84.8261 78.391C81.2109 75.4347 76.8521 73.5139 72.2191 72.8356C67.5479 72.1262 62.7697 72.8096 58.4899 74.7992C53.7174 77.0433 49.7863 80.8294 46.8036 86.0524C42.7749 93.1105 41.7307 100.086 43.7006 106.785C44.5396 109.741 45.9824 112.494 47.9391 114.872C48.1861 115.141 48.3492 115.476 48.4086 115.835C48.4681 116.194 48.4214 116.563 48.2741 116.897C48.1269 117.23 47.8854 117.514 47.579 117.714C47.2726 117.914 46.9144 118.021 46.5478 118.023" fill="white"/>
<path d="M22.7204 120.572C22.2848 120.574 21.8618 120.427 21.5227 120.156C21.1836 119.884 20.9491 119.505 20.8587 119.081C20.7683 118.658 20.8275 118.217 21.0263 117.832C21.2252 117.447 21.5516 117.142 21.9505 116.968L35.2957 111.156C35.5235 111.057 35.7687 111.003 36.0175 110.998C36.2662 110.993 36.5135 111.036 36.7453 111.126C36.9771 111.215 37.1888 111.35 37.3684 111.521C37.548 111.692 37.6919 111.896 37.7919 112.122C37.8919 112.348 37.9461 112.592 37.9514 112.839C37.9566 113.086 37.9128 113.332 37.8225 113.562C37.7321 113.792 37.597 114.002 37.4249 114.181C37.2527 114.359 37.0469 114.502 36.8191 114.601L23.4739 120.414C23.2369 120.517 22.9809 120.571 22.7219 120.572" fill="white"/>
<path d="M33.432 93.9043C33.3793 93.9043 33.3258 93.9043 33.2723 93.8985L18.7447 92.7573C18.2439 92.7179 17.7794 92.4825 17.4533 92.103C17.1272 91.7234 16.9664 91.2308 17.006 90.7335C17.0457 90.2362 17.2827 89.7748 17.6649 89.451C18.047 89.1272 18.5431 88.9675 19.0439 89.0069L33.5711 90.1477C34.0575 90.1869 34.5099 90.411 34.834 90.7732C35.1582 91.1355 35.3291 91.608 35.3111 92.0923C35.2931 92.5766 35.0877 93.0353 34.7375 93.3729C34.3874 93.7105 33.9196 93.9008 33.4316 93.9043" fill="white"/>
<path d="M41.8416 76.8686C41.4501 76.8702 41.0679 76.7506 40.7479 76.5265L28.8222 68.206C28.4177 67.9167 28.1443 67.4806 28.0614 66.9924C27.9785 66.5042 28.0927 66.0032 28.3793 65.5981C28.6658 65.193 29.1016 64.9163 29.5922 64.8282C30.0827 64.74 30.5885 64.8474 30.9998 65.1271L42.9236 73.448C43.2525 73.6776 43.4994 74.0051 43.6285 74.3832C43.7575 74.7613 43.7622 75.1704 43.6416 75.5513C43.5211 75.9322 43.2817 76.2651 42.958 76.5019C42.6344 76.7387 42.2433 76.8672 41.8412 76.8686" fill="white"/>
<path d="M57.8527 66.243C57.4489 66.2444 57.0551 66.1176 56.7289 65.8812C56.4026 65.6448 56.161 65.3111 56.0391 64.9287L51.644 51.1308C51.5646 50.8942 51.5334 50.6442 51.5522 50.3954C51.571 50.1466 51.6394 49.9041 51.7534 49.6818C51.8675 49.4596 52.025 49.262 52.2166 49.1008C52.4083 48.9395 52.6303 48.8177 52.8698 48.7424C53.1093 48.6672 53.3614 48.64 53.6116 48.6624C53.8618 48.6848 54.105 48.7564 54.327 48.8731C54.5491 48.9897 54.7456 49.149 54.905 49.3418C55.0645 49.5345 55.1838 49.7568 55.2559 49.9958L59.6511 63.794C59.7403 64.0752 59.7618 64.3732 59.7139 64.6642C59.666 64.9551 59.5499 65.2308 59.3751 65.469C59.2003 65.7073 58.9717 65.9015 58.7075 66.036C58.4434 66.1705 58.1511 66.2415 57.8543 66.2434" fill="white"/>
<path d="M74.7259 65.8576C74.5779 65.858 74.4303 65.8413 74.2861 65.8079C74.0439 65.7519 73.8151 65.649 73.6129 65.5051C73.4107 65.3613 73.239 65.1793 73.1076 64.9695C72.9763 64.7598 72.8878 64.5264 72.8472 64.2826C72.8067 64.0389 72.8149 63.7897 72.8713 63.5491L76.1786 49.4545C76.2338 49.2127 76.3366 48.9841 76.4811 48.7819C76.6256 48.5797 76.8089 48.4079 77.0205 48.2763C77.2321 48.1447 77.4678 48.0559 77.7141 48.0151C77.9603 47.9743 78.2123 47.9823 78.4554 48.0385C78.6986 48.0948 78.9281 48.1982 79.1309 48.3429C79.3337 48.4876 79.5056 48.6706 79.6369 48.8815C79.7681 49.0924 79.8561 49.327 79.8958 49.5718C79.9354 49.8166 79.926 50.0667 79.8679 50.3079L76.5602 64.4025C76.4636 64.8147 76.2298 65.1825 75.8967 65.4465C75.5636 65.7104 75.1505 65.8551 74.7244 65.8572" fill="white"/>
<path d="M23.7721 106.846C23.302 106.849 22.8476 106.678 22.4972 106.366C22.1469 106.055 21.9256 105.625 21.8765 105.161C21.8273 104.697 21.9538 104.231 22.2313 103.854C22.5088 103.477 22.9175 103.216 23.378 103.122L33.1749 101.087C33.4184 101.037 33.6695 101.034 33.9139 101.08C34.1584 101.126 34.3913 101.219 34.5995 101.354C34.8076 101.489 34.9869 101.664 35.1272 101.868C35.2674 102.072 35.3657 102.302 35.4166 102.543C35.4676 102.785 35.47 103.035 35.4239 103.277C35.3777 103.52 35.2839 103.751 35.1477 103.958C35.0116 104.165 34.8357 104.343 34.6303 104.482C34.4248 104.621 34.1938 104.719 33.9503 104.77L24.1534 106.804C24.0279 106.83 23.9002 106.843 23.7721 106.843" fill="white"/>
<path d="M35.3609 84.8395C35.0907 84.8406 34.8233 84.784 34.577 84.6735L25.4511 80.5965C24.9929 80.3919 24.6353 80.0149 24.457 79.5485C24.2786 79.0821 24.2942 78.5644 24.5002 78.1093C24.7062 77.6543 25.0858 77.2991 25.5554 77.122C26.0251 76.9449 26.5464 76.9604 27.0046 77.1649L36.1324 81.242C36.5269 81.4184 36.8488 81.7237 37.0444 82.107C37.24 82.4903 37.2976 82.9286 37.2077 83.3489C37.1177 83.7693 36.8856 84.1464 36.5499 84.4176C36.2142 84.6887 35.7952 84.8376 35.3625 84.8395" fill="white"/>
<path d="M48.8138 69.5484C48.5306 69.5501 48.2507 69.4886 47.9946 69.3684C47.7386 69.2482 47.513 69.0724 47.3346 68.854L41.0196 61.1434C40.8626 60.9517 40.7452 60.7313 40.674 60.4946C40.6029 60.2578 40.5793 60.0095 40.6048 59.7638C40.6303 59.5181 40.7042 59.2797 40.8224 59.0623C40.9406 58.845 41.1008 58.6529 41.2938 58.497C41.4868 58.3411 41.7088 58.2245 41.9471 58.1538C42.1855 58.0832 42.4355 58.0598 42.683 58.0851C42.9304 58.1104 43.1704 58.1838 43.3893 58.3012C43.6081 58.4186 43.8016 58.5777 43.9585 58.7693L50.2739 66.4807C50.4993 66.756 50.6417 67.089 50.6847 67.4412C50.7276 67.7934 50.6694 68.1505 50.5168 68.4713C50.3641 68.792 50.1232 69.0634 49.8219 69.2539C49.5205 69.4445 49.1711 69.5466 48.8138 69.5484" fill="white"/>
<path d="M66.334 65.2588C65.8436 65.2605 65.3717 65.0733 65.0175 64.7366C64.6632 64.3999 64.4542 63.94 64.4344 63.4534L64.0301 53.5227C64.0187 53.275 64.0566 53.0276 64.1418 52.7946C64.227 52.5615 64.3577 52.3475 64.5265 52.1648C64.6953 51.9822 64.8987 51.8344 65.1252 51.7301C65.3516 51.6258 65.5966 51.5669 65.846 51.5569C66.0955 51.547 66.3444 51.5861 66.5786 51.672C66.8128 51.7579 67.0275 51.8889 67.2105 52.0576C67.3935 52.2262 67.5411 52.4291 67.6449 52.6545C67.7487 52.88 67.8065 53.1236 67.8152 53.3714L68.2194 63.3017C68.2397 63.8002 68.0598 64.2862 67.7193 64.653C67.3787 65.0197 66.9054 65.237 66.4035 65.2572C66.3804 65.2572 66.357 65.2572 66.334 65.2572" fill="white"/>
<path d="M89.7874 73.4586C89.4187 73.4603 89.0576 73.3552 88.7483 73.156C88.4389 72.9568 88.1949 72.6723 88.046 72.3374C87.8972 72.0024 87.85 71.6316 87.9103 71.2704C87.9706 70.9092 88.1357 70.5734 88.3855 70.3041L98.2523 59.6538C98.4198 59.4684 98.6227 59.318 98.8492 59.2111C99.0757 59.1042 99.3213 59.0431 99.5718 59.0312C99.8223 59.0193 100.073 59.0569 100.308 59.1419C100.544 59.2268 100.76 59.3574 100.945 59.5261C101.13 59.6947 101.279 59.8981 101.383 60.1243C101.488 60.3506 101.547 60.5952 101.555 60.8441C101.564 61.093 101.523 61.3412 101.435 61.5742C101.346 61.8072 101.212 62.0205 101.04 62.2016L91.1732 72.8515C90.9971 73.0424 90.7829 73.1948 90.5444 73.2993C90.3058 73.4037 90.0481 73.4578 89.7874 73.4582" fill="white"/>
<path d="M82.779 68.8369C82.4538 68.8378 82.1339 68.7556 81.85 68.5982C81.5661 68.4408 81.3277 68.2136 81.1578 67.9383C80.9879 67.663 80.8921 67.3489 80.8798 67.0262C80.8674 66.7036 80.9389 66.3832 81.0872 66.0958L85.6601 57.254C85.7732 57.0334 85.9291 56.8371 86.1187 56.6764C86.3084 56.5157 86.5281 56.3938 86.7653 56.3176C87.0025 56.2414 87.2525 56.2125 87.501 56.2325C87.7495 56.2524 87.9915 56.3209 88.2133 56.434C88.4351 56.5471 88.6322 56.7026 88.7933 56.8915C88.9545 57.0804 89.0765 57.299 89.1523 57.5349C89.2282 57.7707 89.2564 58.0191 89.2354 58.2658C89.2144 58.5125 89.1446 58.7526 89.0299 58.9725L84.4563 67.8143C84.2977 68.1214 84.0571 68.3792 83.7609 68.5595C83.4646 68.7399 83.1241 68.8358 82.7766 68.8369" fill="white"/>
</g>
<defs>
<clipPath id="clip0_0_1">
<rect width="99" height="117" fill="white" transform="translate(17 48)"/>
</clipPath>
</defs>
</svg>
