<?xml version="1.0" encoding="UTF-8"?>
<svg xmlns="http://www.w3.org/2000/svg" xmlns:xlink="http://www.w3.org/1999/xlink" width="150px" height="104px" viewBox="0 0 150 104" version="1.1">
<g id="surface1">
<path style=" stroke:none;fill-rule:nonzero;fill:rgb(95.294118%,96.078431%,99.215686%);fill-opacity:1;" d="M 150.003906 103.980469 L 0 103.980469 C 1.644531 99.753906 4.679688 96.175781 8.957031 95.113281 C 15.214844 93.558594 21.839844 97.828125 28.085938 96.222656 C 31.636719 95.3125 34.425781 92.65625 37.363281 90.453125 C 48.4375 82.136719 63.609375 79.675781 76.714844 84.082031 C 83.5625 86.378906 89.804688 90.402344 96.824219 92.113281 C 105.894531 94.324219 115.382812 92.488281 124.714844 92.1875 C 133.800781 91.894531 146.820312 95.621094 150.003906 103.980469 Z M 150.003906 103.980469 "/>
<path style=" stroke:none;fill-rule:nonzero;fill:rgb(75.686275%,84.705882%,92.941176%);fill-opacity:1;" d="M 125.601562 72.480469 C 124.53125 75.753906 120.832031 78.660156 121.9375 81.066406 C 122.355469 81.980469 122.78125 82.933594 122.972656 83.914062 C 123.097656 84.496094 123.121094 85.097656 123.035156 85.683594 C 122.636719 88.234375 120.269531 89.925781 118.070312 91.246094 C 117.933594 91.324219 117.796875 91.40625 117.660156 91.488281 C 115.574219 92.746094 113.390625 94.199219 112.71875 96.519531 C 112.347656 97.8125 112.511719 99.191406 112.355469 100.527344 C 112.210938 101.753906 111.800781 102.933594 111.148438 103.980469 L 97.09375 103.980469 C 95.84375 102.59375 95.949219 100.265625 96.898438 98.632812 C 97.917969 96.882812 99.632812 95.695312 101.183594 94.402344 C 102.519531 93.285156 103.824219 91.941406 104.335938 90.300781 C 104.417969 90.042969 104.476562 89.777344 104.515625 89.507812 C 104.640625 88.621094 104.570312 84.085938 106.097656 81.296875 C 108.460938 76.988281 112.292969 78.050781 113.460938 75.617188 C 113.910156 74.683594 114.296875 63.242188 121.757812 65.355469 C 122.488281 65.550781 123.167969 65.894531 123.761719 66.363281 C 124.351562 66.832031 124.839844 67.417969 125.203125 68.085938 C 125.558594 68.753906 125.78125 69.488281 125.847656 70.242188 C 125.917969 70.996094 125.835938 71.757812 125.601562 72.480469 Z M 125.601562 72.480469 "/>
<path style=" stroke:none;fill-rule:nonzero;fill:rgb(94.901961%,78.823529%,29.803922%);fill-opacity:1;" d="M 139.25 90.375 C 139.035156 90.523438 138.808594 90.644531 138.566406 90.742188 C 136.550781 91.503906 130.953125 91.417969 130.132812 93.421875 C 129.75 94.363281 129.65625 95.402344 129.328125 96.363281 C 128.578125 98.550781 126.601562 100.1875 124.390625 100.804688 C 123.59375 101.027344 122.773438 101.128906 121.984375 101.375 C 120.460938 101.851562 119.203125 102.8125 118.097656 103.980469 L 99.945312 103.980469 C 99.9375 102.765625 100.234375 101.570312 100.808594 100.503906 C 101.378906 99.4375 102.210938 98.535156 103.222656 97.878906 C 105.242188 96.597656 107.789062 96.355469 109.769531 95.015625 C 111.078125 94.132812 112.019531 92.855469 112.761719 91.441406 C 113.234375 90.519531 113.652344 89.566406 114.015625 88.59375 C 114.570312 87.144531 115.148438 85.589844 116.410156 84.691406 C 117.027344 84.285156 117.710938 83.996094 118.433594 83.835938 C 120.25 83.355469 121.648438 83.640625 122.972656 83.910156 C 124.582031 84.242188 126.082031 84.558594 128.097656 83.480469 C 131.671875 81.566406 136.898438 72.027344 142.117188 81.089844 C 144.214844 84.726562 141.324219 88.976562 139.25 90.375 Z M 139.25 90.375 "/>
<path style=" stroke:none;fill-rule:nonzero;fill:rgb(75.686275%,84.705882%,92.941176%);fill-opacity:1;" d="M 25.421875 72.480469 C 26.496094 75.753906 30.195312 78.660156 29.089844 81.066406 C 28.667969 81.980469 28.246094 82.933594 28.050781 83.914062 C 27.929688 84.496094 27.90625 85.097656 27.988281 85.683594 C 28.390625 88.234375 30.757812 89.925781 32.957031 91.246094 C 33.09375 91.324219 33.230469 91.40625 33.367188 91.488281 C 35.453125 92.746094 37.636719 94.199219 38.304688 96.519531 C 38.675781 97.8125 38.515625 99.191406 38.667969 100.527344 C 38.816406 101.753906 39.226562 102.933594 39.878906 103.980469 L 53.933594 103.980469 C 55.183594 102.59375 55.074219 100.265625 54.125 98.632812 C 53.109375 96.882812 51.394531 95.695312 49.84375 94.402344 C 48.503906 93.285156 47.203125 91.941406 46.691406 90.300781 C 46.609375 90.042969 46.550781 89.777344 46.511719 89.507812 C 46.386719 88.621094 46.453125 84.085938 44.929688 81.296875 C 42.566406 76.988281 38.734375 78.050781 37.566406 75.617188 C 37.117188 74.683594 36.730469 63.242188 29.269531 65.355469 C 28.539062 65.550781 27.859375 65.894531 27.265625 66.363281 C 26.675781 66.832031 26.1875 67.417969 25.824219 68.085938 C 25.464844 68.753906 25.246094 69.488281 25.175781 70.242188 C 25.105469 70.996094 25.191406 71.757812 25.421875 72.480469 Z M 25.421875 72.480469 "/>
<path style=" stroke:none;fill-rule:nonzero;fill:rgb(94.901961%,78.823529%,29.803922%);fill-opacity:1;" d="M 11.773438 90.375 C 11.988281 90.523438 12.21875 90.644531 12.460938 90.742188 C 14.476562 91.503906 20.070312 91.417969 20.890625 93.421875 C 21.277344 94.363281 21.367188 95.402344 21.699219 96.363281 C 22.445312 98.550781 24.425781 100.1875 26.632812 100.804688 C 27.429688 101.027344 28.253906 101.128906 29.042969 101.375 C 30.5625 101.851562 31.820312 102.8125 32.929688 103.980469 L 51.082031 103.980469 C 51.089844 102.765625 50.792969 101.570312 50.21875 100.503906 C 49.648438 99.4375 48.816406 98.535156 47.804688 97.878906 C 45.785156 96.597656 43.238281 96.355469 41.253906 95.015625 C 39.949219 94.132812 39.007812 92.855469 38.265625 91.441406 C 37.789062 90.519531 37.371094 89.566406 37.011719 88.59375 C 36.457031 87.144531 35.875 85.589844 34.617188 84.691406 C 33.996094 84.285156 33.3125 83.996094 32.59375 83.835938 C 30.773438 83.355469 29.378906 83.640625 28.050781 83.910156 C 26.445312 84.242188 24.945312 84.558594 22.929688 83.480469 C 19.355469 81.566406 14.128906 72.027344 8.90625 81.089844 C 6.8125 84.726562 9.703125 88.976562 11.773438 90.375 Z M 11.773438 90.375 "/>
<path style=" stroke:none;fill-rule:nonzero;fill:rgb(100%,100%,100%);fill-opacity:1;" d="M 96.574219 1.488281 L 55.472656 1.488281 C 52.324219 1.488281 49.773438 4.058594 49.773438 7.230469 L 49.773438 96.769531 C 49.773438 99.941406 52.324219 102.511719 55.472656 102.511719 L 96.574219 102.511719 C 99.722656 102.511719 102.273438 99.941406 102.273438 96.769531 L 102.273438 7.230469 C 102.273438 4.058594 99.722656 1.488281 96.574219 1.488281 Z M 96.574219 1.488281 "/>
<path style=" stroke:none;fill-rule:nonzero;fill:rgb(87.058824%,90.980392%,96.078431%);fill-opacity:1;" d="M 96.574219 104 L 55.472656 104 C 53.570312 103.996094 51.746094 103.234375 50.402344 101.878906 C 49.054688 100.523438 48.296875 98.6875 48.296875 96.769531 L 48.296875 7.230469 C 48.296875 5.3125 49.054688 3.476562 50.402344 2.121094 C 51.746094 0.765625 53.570312 0.00390625 55.472656 0 L 96.574219 0 C 98.476562 0.00390625 100.300781 0.765625 101.644531 2.121094 C 102.988281 3.476562 103.746094 5.3125 103.75 7.230469 L 103.75 96.769531 C 103.746094 98.6875 102.988281 100.523438 101.644531 101.878906 C 100.300781 103.234375 98.476562 103.996094 96.574219 104 Z M 55.472656 2.976562 C 54.351562 2.980469 53.28125 3.425781 52.488281 4.222656 C 51.699219 5.019531 51.25 6.101562 51.25 7.230469 L 51.25 96.769531 C 51.25 97.898438 51.699219 98.980469 52.488281 99.777344 C 53.277344 100.574219 54.351562 101.019531 55.472656 101.019531 L 96.574219 101.019531 C 97.691406 101.019531 98.765625 100.574219 99.554688 99.777344 C 100.34375 98.980469 100.792969 97.898438 100.792969 96.769531 L 100.792969 7.230469 C 100.792969 6.101562 100.34375 5.019531 99.554688 4.222656 C 98.765625 3.425781 97.691406 2.980469 96.574219 2.976562 Z M 55.472656 2.976562 "/>
<path style=" stroke:none;fill-rule:nonzero;fill:rgb(87.058824%,90.980392%,96.078431%);fill-opacity:1;" d="M 67.023438 1.488281 L 85.023438 1.488281 L 85.023438 5.007812 C 85.023438 5.351562 84.957031 5.695312 84.824219 6.011719 C 84.691406 6.332031 84.5 6.625 84.253906 6.867188 C 84.015625 7.113281 83.726562 7.308594 83.40625 7.441406 C 83.089844 7.570312 82.753906 7.640625 82.40625 7.640625 L 69.636719 7.640625 C 68.945312 7.640625 68.28125 7.363281 67.789062 6.867188 C 67.300781 6.375 67.023438 5.707031 67.023438 5.003906 Z M 67.023438 1.488281 "/>
<path style=" stroke:none;fill-rule:nonzero;fill:rgb(75.686275%,84.705882%,92.941176%);fill-opacity:1;" d="M 84.640625 23.234375 C 84.640625 24.953125 84.136719 26.628906 83.191406 28.058594 C 82.242188 29.488281 80.894531 30.597656 79.320312 31.257812 C 77.746094 31.914062 76.015625 32.085938 74.339844 31.75 C 72.667969 31.414062 71.132812 30.589844 69.925781 29.375 C 68.71875 28.160156 67.902344 26.613281 67.570312 24.925781 C 67.234375 23.242188 67.40625 21.496094 68.058594 19.910156 C 68.710938 18.324219 69.816406 16.96875 71.234375 16.015625 C 72.652344 15.058594 74.316406 14.550781 76.023438 14.550781 C 77.15625 14.546875 78.28125 14.769531 79.328125 15.203125 C 80.375 15.636719 81.324219 16.277344 82.128906 17.085938 C 82.929688 17.894531 83.5625 18.851562 83.996094 19.90625 C 84.425781 20.964844 84.648438 22.09375 84.640625 23.234375 Z M 84.640625 23.234375 "/>
<path style=" stroke:none;fill-rule:nonzero;fill:rgb(100%,100%,100%);fill-opacity:1;" d="M 76.023438 24.128906 C 77.910156 24.128906 79.4375 22.589844 79.4375 20.691406 C 79.4375 18.792969 77.910156 17.253906 76.023438 17.253906 C 74.140625 17.253906 72.609375 18.792969 72.609375 20.691406 C 72.609375 22.589844 74.140625 24.128906 76.023438 24.128906 Z M 76.023438 24.128906 "/>
<path style=" stroke:none;fill-rule:nonzero;fill:rgb(100%,100%,100%);fill-opacity:1;" d="M 82.234375 29.253906 C 81.429688 30.097656 80.464844 30.769531 79.398438 31.226562 C 78.332031 31.683594 77.183594 31.917969 76.023438 31.917969 C 74.863281 31.917969 73.714844 31.683594 72.648438 31.226562 C 71.582031 30.769531 70.617188 30.097656 69.8125 29.257812 C 70.972656 26.640625 73.320312 24.851562 76.023438 24.851562 C 78.726562 24.851562 81.070312 26.636719 82.234375 29.253906 Z M 82.234375 29.253906 "/>
<path style=" stroke:none;fill-rule:nonzero;fill:rgb(94.901961%,78.823529%,29.803922%);fill-opacity:1;" d="M 94.183594 38.179688 L 57.863281 38.179688 L 57.863281 46.160156 L 94.183594 46.160156 Z M 94.183594 38.179688 "/>
<path style=" stroke:none;fill-rule:nonzero;fill:rgb(75.686275%,84.705882%,92.941176%);fill-opacity:1;" d="M 94.183594 51.972656 L 57.863281 51.972656 L 57.863281 59.957031 L 94.183594 59.957031 Z M 94.183594 51.972656 "/>
<path style=" stroke:none;fill-rule:nonzero;fill:rgb(91.372549%,53.333333%,38.431373%);fill-opacity:1;" d="M 119.828125 33.988281 C 119.828125 33.988281 118.484375 33.40625 118.484375 29.839844 L 115.773438 29.5625 C 115.773438 29.5625 116.335938 32.714844 115.066406 33.832031 Z M 119.828125 33.988281 "/>
<path style=" stroke:none;fill-rule:nonzero;fill:rgb(91.372549%,53.333333%,38.431373%);fill-opacity:1;" d="M 119.882812 28.34375 C 119.789062 29.433594 119.289062 30.496094 118.375 30.921875 C 117.382812 31.417969 116.289062 31.660156 115.179688 31.628906 C 112.242188 31.628906 112.273438 24.894531 113.554688 23.480469 C 114.835938 22.066406 118.972656 22.554688 119.644531 24.683594 C 119.988281 25.789062 119.976562 27.308594 119.882812 28.34375 Z M 119.882812 28.34375 "/>
<path style=" stroke:none;fill-rule:nonzero;fill:rgb(21.176471%,48.627451%,100%);fill-opacity:1;" d="M 115.621094 27.863281 C 115.753906 27.863281 115.863281 27.753906 115.863281 27.617188 C 115.863281 27.480469 115.753906 27.371094 115.621094 27.371094 C 115.488281 27.371094 115.378906 27.480469 115.378906 27.617188 C 115.378906 27.753906 115.488281 27.863281 115.621094 27.863281 Z M 115.621094 27.863281 "/>
<path style=" stroke:none;fill-rule:nonzero;fill:rgb(21.176471%,48.627451%,100%);fill-opacity:1;" d="M 116.097656 27.132812 C 116.089844 27.132812 116.085938 27.132812 116.082031 27.128906 L 115.433594 27.03125 C 115.417969 27.027344 115.40625 27.023438 115.394531 27.015625 C 115.378906 27.007812 115.367188 26.996094 115.355469 26.984375 C 115.347656 26.972656 115.339844 26.957031 115.339844 26.945312 C 115.332031 26.929688 115.332031 26.914062 115.335938 26.898438 C 115.339844 26.882812 115.34375 26.871094 115.351562 26.855469 C 115.359375 26.839844 115.371094 26.832031 115.382812 26.824219 C 115.394531 26.8125 115.410156 26.808594 115.425781 26.804688 C 115.441406 26.800781 115.457031 26.800781 115.472656 26.800781 L 116.113281 26.902344 C 116.144531 26.910156 116.167969 26.925781 116.1875 26.945312 C 116.203125 26.96875 116.210938 26.996094 116.210938 27.027344 C 116.210938 27.054688 116.195312 27.082031 116.175781 27.101562 C 116.15625 27.121094 116.128906 27.132812 116.097656 27.132812 Z M 116.097656 27.132812 "/>
<path style=" stroke:none;fill-rule:nonzero;fill:rgb(91.372549%,53.333333%,38.431373%);fill-opacity:1;" d="M 113.71875 28.652344 C 113.71875 28.929688 113.824219 29.191406 114.019531 29.386719 C 114.210938 29.582031 114.472656 29.691406 114.746094 29.691406 C 115.019531 29.691406 115.28125 29.582031 115.472656 29.386719 C 115.667969 29.191406 115.773438 28.929688 115.773438 28.652344 C 115.78125 28.386719 115.679688 28.121094 115.492188 27.929688 C 115.304688 27.734375 115.046875 27.621094 114.78125 27.617188 C 114.769531 27.617188 114.757812 27.617188 114.746094 27.617188 C 114.015625 27.652344 113.71875 28.082031 113.71875 28.652344 Z M 113.71875 28.652344 "/>
<path style=" stroke:none;fill-rule:nonzero;fill:rgb(5.882353%,6.27451%,6.666667%);fill-opacity:1;" d="M 113.707031 26.214844 C 113.136719 26.210938 112.570312 26.164062 112.007812 26.074219 C 112.007812 26.074219 112.179688 21.699219 116.789062 21.949219 C 117.386719 21.917969 117.988281 21.957031 118.578125 22.054688 C 119.964844 22.269531 121.929688 23.695312 122.25 27.269531 C 122.394531 28.90625 122.953125 30.449219 123.382812 31.429688 C 123.433594 31.542969 123.453125 31.667969 123.445312 31.792969 C 123.433594 31.917969 123.390625 32.042969 123.324219 32.144531 C 123.257812 32.253906 123.164062 32.339844 123.054688 32.398438 C 122.945312 32.457031 122.820312 32.488281 122.695312 32.488281 L 112.820312 32.410156 C 112.703125 32.410156 112.589844 32.382812 112.480469 32.332031 C 112.378906 32.277344 112.289062 32.199219 112.21875 32.105469 C 112.148438 32.011719 112.101562 31.902344 112.082031 31.785156 C 112.0625 31.667969 112.066406 31.550781 112.101562 31.441406 C 112.640625 29.644531 113.621094 28.546875 113.707031 26.214844 Z M 113.707031 26.214844 "/>
<path style=" stroke:none;fill-rule:nonzero;fill:rgb(91.372549%,53.333333%,38.431373%);fill-opacity:1;" d="M 96.359375 44.675781 C 96.359375 44.675781 93.980469 44.011719 93.640625 43.554688 C 93.300781 43.097656 94.128906 41.554688 94.128906 41.554688 C 94.128906 41.554688 91.75 40.574219 91.980469 40.1875 C 92.25 39.730469 95.21875 41.363281 95.21875 41.363281 C 95.21875 41.363281 94.574219 40.597656 94.890625 40.394531 C 95.019531 40.308594 95.1875 40.402344 95.671875 40.933594 C 96.222656 41.542969 97.171875 42.402344 97.171875 42.402344 Z M 96.359375 44.675781 "/>
<path style=" stroke:none;fill-rule:nonzero;fill:rgb(91.372549%,53.333333%,38.431373%);fill-opacity:1;" d="M 108.195312 102.152344 C 107.824219 99.011719 107.824219 98.691406 107.824219 98.582031 L 111.339844 98.582031 C 111.339844 98.574219 111.339844 98.558594 111.339844 98.542969 C 111.351562 98.804688 111.53125 100.402344 111.6875 101.734375 Z M 108.195312 102.152344 "/>
<path style=" stroke:none;fill-rule:nonzero;fill:rgb(91.372549%,53.333333%,38.431373%);fill-opacity:1;" d="M 122.207031 102.574219 C 122.207031 102.574219 122.195312 98.910156 122.195312 98.582031 L 125.710938 98.582031 C 125.710938 98.90625 125.726562 102.566406 125.726562 102.566406 Z M 122.207031 102.574219 "/>
<path style=" stroke:none;fill-rule:nonzero;fill:rgb(91.372549%,53.333333%,38.431373%);fill-opacity:1;" d="M 127.300781 57.851562 C 127.300781 58.355469 127.039062 60.035156 127.460938 60.15625 C 127.714844 60.226562 128.015625 58.972656 128.015625 58.972656 "/>
<path style=" stroke:none;fill-rule:nonzero;fill:rgb(91.372549%,53.333333%,38.431373%);fill-opacity:1;" d="M 129.304688 57.589844 C 129.304688 57.589844 130.6875 60.980469 129.109375 62.929688 C 129.070312 62.980469 129.015625 63.015625 128.953125 63.035156 C 128.894531 63.050781 128.828125 63.050781 128.765625 63.03125 C 128.707031 63.011719 128.65625 62.972656 128.617188 62.925781 C 128.578125 62.875 128.554688 62.8125 128.546875 62.746094 C 128.472656 61.433594 128.207031 58.734375 127.347656 59.050781 L 127.347656 56.929688 "/>
<path style=" stroke:none;fill-rule:nonzero;fill:rgb(14.901961%,14.901961%,14.901961%);fill-opacity:1;" d="M 125.214844 79.542969 C 124.875 74.25 124.289062 65.371094 124 60.160156 L 124.046875 60.160156 L 123.550781 51.773438 L 110.808594 52.566406 L 110.679688 53.464844 L 110.632812 53.449219 C 109.140625 61.425781 108.503906 70.242188 107.292969 78.277344 C 107.207031 85.714844 107.183594 93.503906 106.894531 100.929688 L 113.09375 101.035156 C 113.074219 93.785156 113.25 86.199219 113.464844 78.9375 C 114.433594 73.242188 115.800781 66.925781 116.894531 61.292969 C 117.886719 72.265625 119.363281 90.238281 120.457031 101.359375 L 126.632812 100.832031 Z M 125.214844 79.542969 "/>
<path style=" stroke:none;fill-rule:nonzero;fill:rgb(75.686275%,84.705882%,92.941176%);fill-opacity:1;" d="M 117.929688 103.949219 C 117.839844 103.945312 117.753906 103.925781 117.667969 103.894531 C 117.585938 103.855469 117.511719 103.808594 117.445312 103.742188 C 117.382812 103.675781 117.332031 103.601562 117.300781 103.515625 C 117.265625 103.433594 117.246094 103.339844 117.246094 103.25 C 117.246094 103.234375 117.246094 103.214844 117.25 103.199219 C 117.261719 103.066406 117.308594 102.941406 117.386719 102.835938 C 117.464844 102.730469 117.570312 102.652344 117.695312 102.605469 L 121.789062 101.222656 C 121.867188 101.199219 121.953125 101.1875 122.035156 101.199219 C 122.117188 101.207031 122.199219 101.234375 122.269531 101.277344 C 122.832031 101.667969 123.503906 101.871094 124.191406 101.851562 C 124.722656 101.8125 125.234375 101.625 125.667969 101.308594 C 125.707031 101.277344 125.75 101.253906 125.800781 101.25 C 125.847656 101.246094 125.898438 101.253906 125.941406 101.273438 C 125.988281 101.292969 126.027344 101.328125 126.050781 101.371094 C 126.078125 101.410156 126.089844 101.460938 126.089844 101.511719 L 126.089844 103.527344 C 126.089844 103.644531 126.042969 103.761719 125.960938 103.847656 C 125.875 103.929688 125.761719 103.980469 125.640625 103.980469 Z M 117.929688 103.949219 "/>
<path style=" stroke:none;fill-rule:nonzero;fill:rgb(75.686275%,84.705882%,92.941176%);fill-opacity:1;" d="M 103.90625 103.949219 C 103.816406 103.945312 103.730469 103.925781 103.644531 103.894531 C 103.5625 103.855469 103.484375 103.808594 103.421875 103.742188 C 103.359375 103.675781 103.308594 103.601562 103.273438 103.515625 C 103.242188 103.433594 103.222656 103.339844 103.222656 103.25 C 103.222656 103.234375 103.222656 103.214844 103.226562 103.199219 C 103.238281 103.066406 103.28125 102.941406 103.363281 102.835938 C 103.441406 102.730469 103.546875 102.652344 103.671875 102.605469 L 107.765625 101.222656 C 107.84375 101.199219 107.929688 101.1875 108.011719 101.199219 C 108.09375 101.207031 108.175781 101.234375 108.246094 101.277344 C 108.808594 101.667969 109.480469 101.871094 110.167969 101.851562 C 110.699219 101.8125 111.210938 101.625 111.644531 101.308594 C 111.683594 101.277344 111.726562 101.253906 111.777344 101.25 C 111.824219 101.246094 111.875 101.253906 111.917969 101.273438 C 111.964844 101.292969 112.003906 101.328125 112.027344 101.371094 C 112.054688 101.410156 112.066406 101.460938 112.066406 101.511719 L 112.066406 103.527344 C 112.066406 103.644531 112.019531 103.761719 111.933594 103.847656 C 111.851562 103.929688 111.738281 103.980469 111.617188 103.980469 Z M 103.90625 103.949219 "/>
<path style=" stroke:none;fill-rule:nonzero;fill:rgb(94.901961%,78.823529%,29.803922%);fill-opacity:1;" d="M 128.53125 47.148438 C 128.515625 47.023438 128.484375 46.902344 128.441406 46.785156 L 124.59375 36.253906 L 124.574219 36.261719 C 124.40625 35.742188 124.117188 35.273438 123.730469 34.890625 C 122.964844 34.121094 121.640625 33.621094 120.027344 33.621094 C 117.625 33.621094 114.34375 33.625 113.671875 33.652344 C 111.617188 33.742188 110.65625 34.671875 110.265625 36.042969 L 105.460938 44.730469 L 97.128906 41.605469 L 95.902344 44.925781 L 105.648438 48.582031 C 106.042969 48.730469 106.476562 48.730469 106.867188 48.582031 C 107.265625 48.433594 107.59375 48.152344 107.796875 47.78125 L 110.476562 42.933594 C 110.550781 43.621094 110.601562 44.300781 110.609375 44.945312 C 110.675781 50.425781 109.207031 51.457031 109.929688 53.128906 C 110.632812 54.753906 124.421875 55.429688 124.605469 52.570312 C 124.722656 50.753906 123.132812 49.164062 123.132812 45.621094 C 123.144531 44.945312 123.234375 44.277344 123.394531 43.621094 L 124.949219 47.875 L 126.472656 58.21875 L 130.082031 57.679688 Z M 128.53125 47.148438 "/>
<path style=" stroke:none;fill-rule:nonzero;fill:rgb(75.686275%,84.705882%,92.941176%);fill-opacity:1;" d="M 76.023438 92.78125 C 82.390625 92.78125 87.554688 87.582031 87.554688 81.167969 C 87.554688 74.75 82.390625 69.550781 76.023438 69.550781 C 69.652344 69.550781 64.492188 74.75 64.492188 81.167969 C 64.492188 87.582031 69.652344 92.78125 76.023438 92.78125 Z M 76.023438 92.78125 "/>
<path style=" stroke:none;fill-rule:nonzero;fill:rgb(100%,100%,100%);fill-opacity:1;" d="M 68.851562 75.992188 C 67.527344 86.527344 76.207031 89.394531 76.207031 89.394531 C 76.207031 89.394531 84.171875 86.34375 83.257812 76.019531 C 83.257812 76.019531 78.609375 77.003906 76.207031 73.472656 C 76.207031 73.472656 74.441406 76.894531 68.851562 75.992188 Z M 68.851562 75.992188 "/>
<path style=" stroke:none;fill-rule:nonzero;fill:rgb(94.901961%,78.823529%,29.803922%);fill-opacity:1;" d="M 78.46875 80.136719 L 78.121094 80.136719 L 78.121094 79.351562 C 78.117188 78.792969 77.894531 78.261719 77.5 77.871094 C 77.109375 77.476562 76.578125 77.257812 76.023438 77.257812 C 75.46875 77.257812 74.9375 77.476562 74.546875 77.871094 C 74.152344 78.261719 73.929688 78.792969 73.925781 79.351562 L 73.925781 80.136719 L 73.578125 80.136719 C 73.417969 80.136719 73.265625 80.199219 73.152344 80.3125 C 73.039062 80.425781 72.976562 80.582031 72.976562 80.738281 L 72.976562 84.683594 C 72.976562 84.84375 73.039062 84.996094 73.152344 85.113281 C 73.265625 85.222656 73.417969 85.289062 73.578125 85.289062 L 78.46875 85.289062 C 78.628906 85.289062 78.78125 85.222656 78.894531 85.113281 C 79.007812 84.996094 79.070312 84.84375 79.070312 84.683594 L 79.070312 80.738281 C 79.070312 80.660156 79.054688 80.582031 79.023438 80.507812 C 78.996094 80.433594 78.953125 80.371094 78.894531 80.3125 C 78.835938 80.257812 78.773438 80.210938 78.699219 80.183594 C 78.628906 80.152344 78.550781 80.136719 78.46875 80.136719 Z M 74.605469 79.351562 C 74.609375 78.976562 74.761719 78.617188 75.027344 78.351562 C 75.292969 78.089844 75.652344 77.941406 76.023438 77.941406 C 76.394531 77.941406 76.753906 78.089844 77.019531 78.351562 C 77.285156 78.617188 77.433594 78.976562 77.441406 79.351562 L 77.441406 80.136719 L 74.605469 80.136719 Z M 74.605469 79.351562 "/>
<path style=" stroke:none;fill-rule:nonzero;fill:rgb(100%,100%,100%);fill-opacity:1;" d="M 61.457031 43.457031 C 62.160156 43.457031 62.734375 42.878906 62.734375 42.167969 C 62.734375 41.457031 62.160156 40.882812 61.457031 40.882812 C 60.75 40.882812 60.179688 41.457031 60.179688 42.167969 C 60.179688 42.878906 60.75 43.457031 61.457031 43.457031 Z M 61.457031 43.457031 "/>
<path style=" stroke:none;fill-rule:nonzero;fill:rgb(100%,100%,100%);fill-opacity:1;" d="M 65.289062 43.457031 C 66 43.457031 66.570312 42.878906 66.570312 42.167969 C 66.570312 41.457031 66 40.882812 65.289062 40.882812 C 64.585938 40.882812 64.015625 41.457031 64.015625 42.167969 C 64.015625 42.878906 64.585938 43.457031 65.289062 43.457031 Z M 65.289062 43.457031 "/>
<path style=" stroke:none;fill-rule:nonzero;fill:rgb(100%,100%,100%);fill-opacity:1;" d="M 69.128906 43.457031 C 69.835938 43.457031 70.40625 42.878906 70.40625 42.167969 C 70.40625 41.457031 69.835938 40.882812 69.128906 40.882812 C 68.421875 40.882812 67.851562 41.457031 67.851562 42.167969 C 67.851562 42.878906 68.421875 43.457031 69.128906 43.457031 Z M 69.128906 43.457031 "/>
<path style=" stroke:none;fill-rule:nonzero;fill:rgb(100%,100%,100%);fill-opacity:1;" d="M 72.964844 43.457031 C 73.671875 43.457031 74.242188 42.878906 74.242188 42.167969 C 74.242188 41.457031 73.671875 40.882812 72.964844 40.882812 C 72.257812 40.882812 71.6875 41.457031 71.6875 42.167969 C 71.6875 42.878906 72.257812 43.457031 72.964844 43.457031 Z M 72.964844 43.457031 "/>
<path style=" stroke:none;fill-rule:nonzero;fill:rgb(100%,100%,100%);fill-opacity:1;" d="M 76.800781 43.457031 C 77.507812 43.457031 78.078125 42.878906 78.078125 42.167969 C 78.078125 41.457031 77.507812 40.882812 76.800781 40.882812 C 76.097656 40.882812 75.523438 41.457031 75.523438 42.167969 C 75.523438 42.878906 76.097656 43.457031 76.800781 43.457031 Z M 76.800781 43.457031 "/>
<path style=" stroke:none;fill-rule:nonzero;fill:rgb(100%,100%,100%);fill-opacity:1;" d="M 80.640625 43.457031 C 81.34375 43.457031 81.917969 42.878906 81.917969 42.167969 C 81.917969 41.457031 81.34375 40.882812 80.640625 40.882812 C 79.933594 40.882812 79.359375 41.457031 79.359375 42.167969 C 79.359375 42.878906 79.933594 43.457031 80.640625 43.457031 Z M 80.640625 43.457031 "/>
<path style=" stroke:none;fill-rule:nonzero;fill:rgb(100%,100%,100%);fill-opacity:1;" d="M 84.339844 43.457031 C 85.042969 43.457031 85.617188 42.878906 85.617188 42.167969 C 85.617188 41.457031 85.042969 40.882812 84.339844 40.882812 C 83.632812 40.882812 83.058594 41.457031 83.058594 42.167969 C 83.058594 42.878906 83.632812 43.457031 84.339844 43.457031 Z M 84.339844 43.457031 "/>
<path style=" stroke:none;fill-rule:nonzero;fill:rgb(100%,100%,100%);fill-opacity:1;" d="M 61.457031 57.253906 C 62.160156 57.253906 62.734375 56.675781 62.734375 55.964844 C 62.734375 55.253906 62.160156 54.675781 61.457031 54.675781 C 60.75 54.675781 60.179688 55.253906 60.179688 55.964844 C 60.179688 56.675781 60.75 57.253906 61.457031 57.253906 Z M 61.457031 57.253906 "/>
<path style=" stroke:none;fill-rule:nonzero;fill:rgb(100%,100%,100%);fill-opacity:1;" d="M 65.289062 57.253906 C 66 57.253906 66.570312 56.675781 66.570312 55.964844 C 66.570312 55.253906 66 54.675781 65.289062 54.675781 C 64.585938 54.675781 64.015625 55.253906 64.015625 55.964844 C 64.015625 56.675781 64.585938 57.253906 65.289062 57.253906 Z M 65.289062 57.253906 "/>
<path style=" stroke:none;fill-rule:nonzero;fill:rgb(100%,100%,100%);fill-opacity:1;" d="M 69.128906 57.253906 C 69.835938 57.253906 70.40625 56.675781 70.40625 55.964844 C 70.40625 55.253906 69.835938 54.675781 69.128906 54.675781 C 68.421875 54.675781 67.851562 55.253906 67.851562 55.964844 C 67.851562 56.675781 68.421875 57.253906 69.128906 57.253906 Z M 69.128906 57.253906 "/>
<path style=" stroke:none;fill-rule:nonzero;fill:rgb(100%,100%,100%);fill-opacity:1;" d="M 72.964844 57.253906 C 73.671875 57.253906 74.242188 56.675781 74.242188 55.964844 C 74.242188 55.253906 73.671875 54.675781 72.964844 54.675781 C 72.257812 54.675781 71.6875 55.253906 71.6875 55.964844 C 71.6875 56.675781 72.257812 57.253906 72.964844 57.253906 Z M 72.964844 57.253906 "/>
<path style=" stroke:none;fill-rule:nonzero;fill:rgb(100%,100%,100%);fill-opacity:1;" d="M 76.800781 57.253906 C 77.507812 57.253906 78.078125 56.675781 78.078125 55.964844 C 78.078125 55.253906 77.507812 54.675781 76.800781 54.675781 C 76.097656 54.675781 75.523438 55.253906 75.523438 55.964844 C 75.523438 56.675781 76.097656 57.253906 76.800781 57.253906 Z M 76.800781 57.253906 "/>
<path style=" stroke:none;fill-rule:nonzero;fill:rgb(100%,100%,100%);fill-opacity:1;" d="M 80.640625 57.253906 C 81.34375 57.253906 81.917969 56.675781 81.917969 55.964844 C 81.917969 55.253906 81.34375 54.675781 80.640625 54.675781 C 79.933594 54.675781 79.359375 55.253906 79.359375 55.964844 C 79.359375 56.675781 79.933594 57.253906 80.640625 57.253906 Z M 80.640625 57.253906 "/>
</g>
</svg>
