<svg width="21" height="25" viewBox="0 0 21 25" fill="none" xmlns="http://www.w3.org/2000/svg">
<g clip-path="url(#clip0_259_1082)">
<path d="M7.85529 11.6347V21.8866C7.85529 21.8866 7.68129 24.8405 8.89747 24.8405C10.1136 24.8405 10.9817 23.2767 11.1556 20.149C11.3294 17.0214 13.4136 19.4539 14.282 20.4964C15.1504 21.5389 19.0266 25.7516 20.0689 24.8828C20.0689 24.8828 21.2846 24.014 20.9374 22.4502C20.5901 20.8864 13.1529 19.0194 14.7163 15.8917C16.2798 12.764 20.2745 13.2853 19.58 9.63629C19.58 9.63629 19.406 7.8987 17.1482 9.28874C14.8903 10.6788 14.0216 13.6328 12.8057 14.5016C11.5899 15.3704 10.2004 15.1966 10.2004 12.764C10.2004 10.3314 10.0264 9.28874 8.81072 9.28874C7.59504 9.28874 7.85546 11.6345 7.85546 11.6345" fill="#333333"/>
<path d="M14.0782 9.86683C14.0782 10.1761 13.9865 10.4785 13.8147 10.7357C13.6429 10.9929 13.3988 11.1933 13.1131 11.3117C12.8275 11.43 12.5132 11.461 12.2099 11.4006C11.9067 11.3403 11.6281 11.1913 11.4095 10.9726C11.1909 10.7539 11.042 10.4752 10.9817 10.1719C10.9214 9.86851 10.9523 9.55407 11.0707 9.26831C11.189 8.98256 11.3894 8.73832 11.6465 8.5665C11.9036 8.39467 12.2058 8.30296 12.515 8.30298C12.9296 8.30298 13.3272 8.46774 13.6204 8.76102C13.9136 9.0543 14.0783 9.45207 14.0783 9.86683" fill="#333333"/>
<path d="M6.26749 14.9623C6.21179 14.9626 6.15663 14.9513 6.10557 14.929C6.0545 14.9068 6.00865 14.8741 5.97094 14.8331C5.94277 14.8025 5.27677 14.0705 4.90424 12.8272C4.56229 11.686 4.40917 9.87635 5.62269 7.73476C6.97715 5.34467 9.29756 4.13947 11.8296 4.51156C12.9589 4.67848 14.0212 5.15046 14.9023 5.87665C15.8072 6.63276 16.4142 7.59667 16.6577 8.66427C16.6703 8.71602 16.6724 8.76975 16.664 8.82233C16.6556 8.87492 16.6369 8.92531 16.6089 8.97059C16.5809 9.01586 16.5441 9.05512 16.5008 9.08608C16.4575 9.11704 16.4085 9.13908 16.3566 9.15093C16.3047 9.16277 16.251 9.16419 16.1985 9.15509C16.1461 9.14599 16.096 9.12656 16.0511 9.09793C16.0062 9.06929 15.9675 9.03203 15.9371 8.98829C15.9068 8.94455 15.8854 8.89522 15.8742 8.84315C15.6702 7.94853 15.156 7.13614 14.3871 6.49384C13.6203 5.86215 12.6957 5.45173 11.7129 5.30679C10.7221 5.1552 9.70851 5.30123 8.80067 5.72637C7.78832 6.20588 6.95445 7.01488 6.32176 8.13089C5.46717 9.63904 5.24569 11.1295 5.66354 12.561C5.84151 13.1926 6.14755 13.7808 6.56262 14.289C6.61501 14.3465 6.6496 14.418 6.66221 14.4947C6.67483 14.5715 6.66492 14.6503 6.63368 14.7215C6.60245 14.7928 6.55123 14.8534 6.48623 14.8962C6.42124 14.9389 6.34525 14.9618 6.26749 14.9622" fill="#333333"/>
<path d="M1.21372 15.5069C1.12131 15.5073 1.03159 15.4759 0.959658 15.4178C0.887726 15.3598 0.837984 15.2787 0.818807 15.1883C0.799631 15.0979 0.812194 15.0036 0.854378 14.9214C0.896563 14.8391 0.965792 14.7739 1.05041 14.7368L3.88121 13.4949C3.92953 13.4736 3.98155 13.4621 4.03431 13.461C4.08707 13.4599 4.13953 13.4692 4.1887 13.4884C4.23787 13.5075 4.28278 13.5362 4.32087 13.5727C4.35896 13.6093 4.38949 13.653 4.41071 13.7013C4.43193 13.7496 4.44342 13.8017 4.44453 13.8545C4.44565 13.9072 4.43636 13.9597 4.41719 14.0089C4.39803 14.0581 4.36937 14.103 4.33285 14.1411C4.29634 14.1792 4.25267 14.2098 4.20435 14.231L1.37355 15.473C1.32328 15.4951 1.26898 15.5067 1.21405 15.5069" fill="#333333"/>
<path d="M3.48555 9.80871C3.47437 9.80871 3.46302 9.80871 3.45167 9.80747L0.370052 9.56361C0.263825 9.55519 0.165292 9.5049 0.0961289 9.42381C0.0269662 9.34271 -0.00716028 9.23745 0.00125615 9.13118C0.00967258 9.02491 0.059943 8.92634 0.141008 8.85715C0.222074 8.78796 0.327293 8.75382 0.43352 8.76224L3.51505 9.00602C3.61823 9.01439 3.71419 9.06227 3.78295 9.13967C3.85171 9.21708 3.88796 9.31804 3.88415 9.42152C3.88034 9.52501 3.83675 9.62303 3.76248 9.69516C3.68821 9.76729 3.58898 9.80797 3.48547 9.80871" fill="#333333"/>
<path d="M5.26925 6.16853C5.1862 6.16886 5.10512 6.14331 5.03725 6.09543L2.50754 4.31755C2.42174 4.25572 2.36376 4.16254 2.34617 4.05823C2.32859 3.95391 2.35281 3.84687 2.41359 3.7603C2.47438 3.67373 2.56682 3.61462 2.67087 3.59578C2.77493 3.57694 2.88222 3.5999 2.96947 3.65967L5.49876 5.43762C5.56853 5.48668 5.6209 5.55666 5.64828 5.63745C5.67566 5.71825 5.67663 5.80566 5.65107 5.88704C5.6255 5.96843 5.57472 6.03957 5.50606 6.09017C5.43741 6.14078 5.35444 6.16822 5.26917 6.16853" fill="#333333"/>
<path d="M8.66574 3.89805C8.58007 3.89835 8.49655 3.87127 8.42735 3.82076C8.35814 3.77024 8.30688 3.69893 8.28103 3.61722L7.34873 0.668963C7.33188 0.618392 7.32526 0.564975 7.32925 0.51182C7.33324 0.458665 7.34775 0.406834 7.37195 0.359343C7.39615 0.311852 7.42954 0.26965 7.4702 0.23519C7.51085 0.200731 7.55795 0.174704 7.60875 0.158623C7.65955 0.142542 7.71304 0.136728 7.76611 0.14152C7.81918 0.146312 7.87076 0.161614 7.91786 0.186536C7.96497 0.211458 8.00664 0.245501 8.04047 0.286686C8.0743 0.32787 8.0996 0.375374 8.1149 0.426432L9.04721 3.37478C9.06614 3.43485 9.0707 3.49854 9.06053 3.5607C9.05036 3.62286 9.02575 3.68177 8.98867 3.73268C8.9516 3.78359 8.90309 3.82509 8.84706 3.85382C8.79103 3.88256 8.72903 3.89774 8.66607 3.89813" fill="#333333"/>
<path d="M12.2452 3.81577C12.2138 3.81585 12.1825 3.81229 12.1519 3.80516C12.1005 3.79318 12.052 3.77119 12.0091 3.74046C11.9662 3.70972 11.9298 3.67083 11.9019 3.62601C11.8741 3.58119 11.8553 3.53132 11.8467 3.47924C11.8381 3.42717 11.8398 3.3739 11.8518 3.3225L12.5533 0.310828C12.5651 0.259162 12.5869 0.210322 12.6175 0.167117C12.6482 0.123913 12.687 0.0871964 12.7319 0.0590793C12.7768 0.0309623 12.8268 0.0119995 12.879 0.00328175C12.9313 -0.00543604 12.9847 -0.00373687 13.0363 0.00828152C13.0879 0.0202999 13.1366 0.0424004 13.1796 0.0733119C13.2226 0.104223 13.2591 0.143336 13.2869 0.1884C13.3148 0.233464 13.3334 0.283591 13.3418 0.335897C13.3502 0.388203 13.3482 0.441656 13.3359 0.493182L12.6343 3.50485C12.6138 3.59293 12.5642 3.67152 12.4935 3.72792C12.4229 3.78433 12.3353 3.81525 12.2449 3.81569" fill="#333333"/>
<path d="M1.43654 12.5739C1.33681 12.5746 1.24042 12.5381 1.1661 12.4715C1.09179 12.405 1.04485 12.3132 1.03443 12.214C1.024 12.1147 1.05083 12.0152 1.1097 11.9347C1.16856 11.8541 1.25526 11.7984 1.35294 11.7782L3.43107 11.3435C3.48272 11.3327 3.53598 11.3321 3.58783 11.3419C3.63968 11.3517 3.68909 11.3716 3.73325 11.4005C3.7774 11.4294 3.81544 11.4667 3.84518 11.5103C3.87492 11.5539 3.89579 11.603 3.90659 11.6546C3.91739 11.7063 3.91791 11.7596 3.90812 11.8115C3.89833 11.8633 3.87843 11.9128 3.84955 11.9569C3.82066 12.0011 3.78337 12.0391 3.73978 12.0689C3.6962 12.0987 3.64719 12.1195 3.59554 12.1303L1.51741 12.5651C1.4908 12.5706 1.46371 12.5734 1.43654 12.5734" fill="#333333"/>
<path d="M3.89455 7.87175C3.83722 7.87198 3.7805 7.85988 3.72825 7.83627L1.79247 6.96511C1.69527 6.9214 1.61942 6.84085 1.58159 6.74118C1.54376 6.64152 1.54706 6.53091 1.59075 6.43367C1.63445 6.33644 1.71497 6.26055 1.8146 6.22271C1.91422 6.18487 2.0248 6.18817 2.12199 6.23188L4.05819 7.10304C4.14188 7.14075 4.21015 7.20598 4.25164 7.28788C4.29314 7.36979 4.30536 7.46343 4.28628 7.55325C4.2672 7.64307 4.21796 7.72364 4.14676 7.78159C4.07555 7.83953 3.98667 7.87135 3.89488 7.87175" fill="#333333"/>
<path d="M6.7483 4.60437C6.68823 4.60474 6.62885 4.59159 6.57454 4.56591C6.52022 4.54023 6.47238 4.50267 6.43453 4.456L5.09498 2.80843C5.06168 2.76748 5.03678 2.72037 5.02168 2.66979C5.00658 2.61921 5.00159 2.56615 5.00699 2.51364C5.01239 2.46113 5.02808 2.4102 5.05316 2.36376C5.07823 2.31732 5.11221 2.27627 5.15314 2.24296C5.19408 2.20965 5.24117 2.18474 5.29173 2.16963C5.34229 2.15453 5.39533 2.14954 5.44782 2.15494C5.5003 2.16035 5.55121 2.17604 5.59764 2.20113C5.64407 2.22621 5.6851 2.2602 5.71839 2.30115L7.05802 3.94889C7.10583 4.00771 7.13603 4.07885 7.14515 4.15411C7.15426 4.22937 7.14191 4.30567 7.10953 4.37421C7.07714 4.44275 7.02604 4.50073 6.96213 4.54145C6.89821 4.58218 6.82408 4.60399 6.7483 4.60437Z" fill="#333333"/>
<path d="M10.4649 3.68783C10.3609 3.6882 10.2608 3.6482 10.1857 3.57626C10.1105 3.50432 10.0662 3.40603 10.062 3.30207L9.97625 1.18012C9.97382 1.12721 9.98188 1.07433 9.99995 1.02454C10.018 0.974746 10.0457 0.929017 10.0815 0.889982C10.1173 0.850947 10.1605 0.819376 10.2085 0.797085C10.2566 0.774793 10.3085 0.762221 10.3614 0.760091C10.4144 0.75796 10.4672 0.766314 10.5168 0.784672C10.5665 0.803029 10.6121 0.831028 10.6509 0.867059C10.6897 0.90309 10.721 0.946441 10.743 0.994621C10.765 1.0428 10.7773 1.09486 10.7791 1.1478L10.8649 3.26966C10.8692 3.37617 10.831 3.48003 10.7588 3.55839C10.6866 3.63675 10.5862 3.68319 10.4797 3.6875C10.4748 3.6875 10.4698 3.6875 10.4649 3.6875" fill="#333333"/>
<path d="M15.4397 5.43993C15.3615 5.4403 15.2849 5.41782 15.2193 5.37526C15.1537 5.33271 15.1019 5.27191 15.0703 5.20034C15.0388 5.12877 15.0288 5.04954 15.0415 4.97237C15.0543 4.89519 15.0894 4.82343 15.1423 4.76588L17.2353 2.49018C17.2708 2.45058 17.3139 2.41842 17.3619 2.39559C17.41 2.37275 17.4621 2.35969 17.5152 2.35715C17.5683 2.35461 17.6214 2.36265 17.6714 2.3808C17.7214 2.39895 17.7673 2.42685 17.8065 2.46289C17.8456 2.49892 17.8772 2.54237 17.8995 2.59072C17.9217 2.63906 17.9341 2.69134 17.936 2.74453C17.9378 2.79771 17.9291 2.85073 17.9104 2.90052C17.8916 2.95032 17.8631 2.99589 17.8266 3.03459L15.7337 5.31021C15.6963 5.35099 15.6509 5.38356 15.6003 5.40588C15.5497 5.42819 15.495 5.43976 15.4397 5.43985" fill="#333333"/>
<path d="M13.9534 4.45237C13.8845 4.45257 13.8166 4.435 13.7564 4.40138C13.6962 4.36775 13.6456 4.31919 13.6096 4.26037C13.5735 4.20154 13.5532 4.13443 13.5506 4.06548C13.548 3.99654 13.5631 3.92808 13.5946 3.86668L14.5646 1.9774C14.5886 1.93026 14.6216 1.88832 14.6619 1.85398C14.7021 1.81964 14.7487 1.79359 14.799 1.77731C14.8493 1.76103 14.9024 1.75485 14.9551 1.75912C15.0078 1.76339 15.0591 1.77803 15.1062 1.8022C15.1532 1.82636 15.195 1.85958 15.2292 1.89994C15.2634 1.94031 15.2893 1.98703 15.3054 2.03742C15.3215 2.08781 15.3275 2.14089 15.323 2.1936C15.3185 2.24631 15.3037 2.29763 15.2794 2.3446L14.3092 4.23388C14.2756 4.29949 14.2246 4.35458 14.1617 4.39311C14.0989 4.43165 14.0267 4.45215 13.9529 4.45237" fill="#333333"/>
</g>
<defs>
<clipPath id="clip0_259_1082">
<rect width="21" height="25" fill="white"/>
</clipPath>
</defs>
</svg>
